<?xml version="1.0" encoding="UTF-8" standalone="no"?>

<svg width="500" height="500" viewBox="-100 -100 200 200" xmlns="http://www.w3.org/2000/svg">
<g fill="transparent" stroke-width="0.2" stroke="rgba(185, 98, 232, 100%)">
<g>
<animateTransform attributeType="xml" attributeName="transform" type="rotate" from="360" to="0" dur="40s" additive="sum" repeatCount="indefinite" />
<circle r="99.9"/>
<g style="font: 5px monospace" text-anchor="middle" alignment-baseline="middle" stroke="none" fill="rgba(185, 98, 232, 100%)">
<text x="95.6" y="0"  transform="rotate(90,95.6,0)">
🝔</text>
<text x="95.5" y="3.8"  transform="rotate(92.2,95.5,3.8)">
ᛯ</text>
<text x="95.3" y="7.5"  transform="rotate(94.5,95.3,7.5)">
🝣</text>
<text x="94.9" y="11.2"  transform="rotate(96.8,94.9,11.2)">
ᚧ</text>
<text x="94.4" y="14.9"  transform="rotate(99,94.4,14.9)">
Σ</text>
<text x="93.7" y="18.6"  transform="rotate(101.3,93.7,18.6)">
🜏</text>
<text x="92.9" y="22.3"  transform="rotate(103.5,92.9,22.3)">
ᛔ</text>
<text x="92" y="25.9"  transform="rotate(105.8,92,25.9)">
↯</text>
<text x="90.9" y="29.5"  transform="rotate(108,90.9,29.5)">
ᚬ</text>
<text x="89.7" y="33.1"  transform="rotate(110.3,89.7,33.1)">
🜼</text>
<text x="88.3" y="36.6"  transform="rotate(112.5,88.3,36.6)">
🜹</text>
<text x="86.8" y="40"  transform="rotate(114.7,86.8,40)">
🞠</text>
<text x="85.1" y="43.4"  transform="rotate(117,85.1,43.4)">
⚴</text>
<text x="83.4" y="46.7"  transform="rotate(119.3,83.4,46.7)">
☾</text>
<text x="81.5" y="49.9"  transform="rotate(121.5,81.5,49.9)">
☥</text>
<text x="79.5" y="53.1"  transform="rotate(123.8,79.5,53.1)">
⌇</text>
<text x="77.3" y="56.2"  transform="rotate(126,77.3,56.2)">
🜭</text>
<text x="75" y="59.2"  transform="rotate(128.3,75,59.2)">
🜋</text>
<text x="72.7" y="62.1"  transform="rotate(130.5,72.7,62.1)">
🜒</text>
<text x="70.2" y="64.9"  transform="rotate(132.8,70.2,64.9)">
ᛉ</text>
<text x="67.6" y="67.6"  transform="rotate(135,67.6,67.6)">
ᚩ</text>
<text x="64.9" y="70.2"  transform="rotate(137.3,64.9,70.2)">
ᛞ</text>
<text x="62.1" y="72.7"  transform="rotate(139.5,62.1,72.7)">
🜎</text>
<text x="59.2" y="75"  transform="rotate(141.8,59.2,75)">
🜯</text>
<text x="56.2" y="77.3"  transform="rotate(144,56.2,77.3)">
⚶</text>
<text x="53.1" y="79.5"  transform="rotate(146.3,53.1,79.5)">
⚸</text>
<text x="49.9" y="81.5"  transform="rotate(148.5,49.9,81.5)">
🜁</text>
<text x="46.7" y="83.4"  transform="rotate(150.8,46.7,83.4)">
🝢</text>
<text x="43.4" y="85.1"  transform="rotate(153,43.4,85.1)">
ᛩ</text>
<text x="40" y="86.8"  transform="rotate(155.3,40,86.8)">
🜊</text>
<text x="36.6" y="88.3"  transform="rotate(157.5,36.6,88.3)">
ᛒ</text>
<text x="33.1" y="89.7"  transform="rotate(159.8,33.1,89.7)">
⅌</text>
<text x="29.5" y="90.9"  transform="rotate(162,29.5,90.9)">
ᛟ</text>
<text x="25.9" y="92"  transform="rotate(164.3,25.9,92)">
🝪</text>
<text x="22.3" y="92.9"  transform="rotate(166.5,22.3,92.9)">
🜄</text>
<text x="18.6" y="93.7"  transform="rotate(168.8,18.6,93.7)">
🜣</text>
<text x="14.9" y="94.4"  transform="rotate(171,14.9,94.4)">
Λ</text>
<text x="11.2" y="94.9"  transform="rotate(173.3,11.2,94.9)">
⧎</text>
<text x="7.5" y="95.3"  transform="rotate(175.5,7.5,95.3)">
ᚤ</text>
<text x="3.8" y="95.5"  transform="rotate(177.8,3.8,95.5)">
🜖</text>
<text x="0" y="95.6"  transform="rotate(180,0,95.6)">
🜃</text>
<text x="-3.8" y="95.5"  transform="rotate(182.3,-3.8,95.5)">
🜌</text>
<text x="-7.5" y="95.3"  transform="rotate(184.5,-7.5,95.3)">
🝂</text>
<text x="-11.2" y="94.9"  transform="rotate(186.8,-11.2,94.9)">
◈</text>
<text x="-14.9" y="94.4"  transform="rotate(189,-14.9,94.4)">
※</text>
<text x="-18.6" y="93.7"  transform="rotate(191.3,-18.6,93.7)">
ᛥ</text>
<text x="-22.3" y="92.9"  transform="rotate(193.5,-22.3,92.9)">
🝘</text>
<text x="-25.9" y="92"  transform="rotate(195.7,-25.9,92)">
🝁</text>
<text x="-29.5" y="90.9"  transform="rotate(198,-29.5,90.9)">
☥</text>
<text x="-33.1" y="89.7"  transform="rotate(200.2,-33.1,89.7)">
🝤</text>
<text x="-36.6" y="88.3"  transform="rotate(202.5,-36.6,88.3)">
ᚼ</text>
<text x="-40" y="86.8"  transform="rotate(204.7,-40,86.8)">
Λ</text>
<text x="-43.4" y="85.1"  transform="rotate(207,-43.4,85.1)">
ᛥ</text>
<text x="-46.7" y="83.4"  transform="rotate(209.2,-46.7,83.4)">
ᛉ</text>
<text x="-49.9" y="81.5"  transform="rotate(211.5,-49.9,81.5)">
ᛒ</text>
<text x="-53.1" y="79.5"  transform="rotate(213.7,-53.1,79.5)">
🝕</text>
<text x="-56.2" y="77.3"  transform="rotate(216,-56.2,77.3)">
🜗</text>
<text x="-59.2" y="75"  transform="rotate(218.2,-59.2,75)">
🜶</text>
<text x="-62.1" y="72.7"  transform="rotate(220.5,-62.1,72.7)">
🜎</text>
<text x="-64.9" y="70.2"  transform="rotate(222.7,-64.9,70.2)">
🜔</text>
<text x="-67.6" y="67.6"  transform="rotate(225,-67.6,67.6)">
🜊</text>
<text x="-70.2" y="64.9"  transform="rotate(227.2,-70.2,64.9)">
₺</text>
<text x="-72.7" y="62.1"  transform="rotate(229.5,-72.7,62.1)">
⅌</text>
<text x="-75" y="59.2"  transform="rotate(231.7,-75,59.2)">
🝥</text>
<text x="-77.3" y="56.2"  transform="rotate(234,-77.3,56.2)">
ᚤ</text>
<text x="-79.5" y="53.1"  transform="rotate(236.2,-79.5,53.1)">
ᚸ</text>
<text x="-81.5" y="49.9"  transform="rotate(238.5,-81.5,49.9)">
🝧</text>
<text x="-83.4" y="46.7"  transform="rotate(240.7,-83.4,46.7)">
⚸</text>
<text x="-85.1" y="43.4"  transform="rotate(243,-85.1,43.4)">
⚘</text>
<text x="-86.8" y="40"  transform="rotate(245.2,-86.8,40)">
🜯</text>
<text x="-88.3" y="36.6"  transform="rotate(247.5,-88.3,36.6)">
⚴</text>
<text x="-89.7" y="33.1"  transform="rotate(249.7,-89.7,33.1)">
🜮</text>
<text x="-90.9" y="29.5"  transform="rotate(252,-90.9,29.5)">
🝭</text>
<text x="-92" y="25.9"  transform="rotate(254.2,-92,25.9)">
🜱</text>
<text x="-92.9" y="22.3"  transform="rotate(256.5,-92.9,22.3)">
‡</text>
<text x="-93.7" y="18.6"  transform="rotate(258.7,-93.7,18.6)">
🜿</text>
<text x="-94.4" y="14.9"  transform="rotate(261,-94.4,14.9)">
ᛗ</text>
<text x="-94.9" y="11.2"  transform="rotate(263.2,-94.9,11.2)">
ᛝ</text>
<text x="-95.3" y="7.5"  transform="rotate(265.5,-95.3,7.5)">
🜻</text>
<text x="-95.5" y="3.8"  transform="rotate(267.7,-95.5,3.8)">
⌆</text>
<text x="-95.6" y="0"  transform="rotate(270,-95.6,0)">
※</text>
<text x="-95.5" y="-3.8"  transform="rotate(272.2,-95.5,-3.8)">
◈</text>
<text x="-95.3" y="-7.5"  transform="rotate(274.5,-95.3,-7.5)">
🝃</text>
<text x="-94.9" y="-11.2"  transform="rotate(276.7,-94.9,-11.2)">
ᛨ</text>
<text x="-94.4" y="-14.9"  transform="rotate(279,-94.4,-14.9)">
ᚩ</text>
<text x="-93.7" y="-18.6"  transform="rotate(281.2,-93.7,-18.6)">
ᛪ</text>
<text x="-92.9" y="-22.3"  transform="rotate(283.5,-92.9,-22.3)">
ᚰ</text>
<text x="-92" y="-25.9"  transform="rotate(285.7,-92,-25.9)">
ᛮ</text>
<text x="-90.9" y="-29.5"  transform="rotate(288,-90.9,-29.5)">
Ω</text>
<text x="-89.7" y="-33.1"  transform="rotate(290.2,-89.7,-33.1)">
🜒</text>
<text x="-88.3" y="-36.6"  transform="rotate(292.5,-88.3,-36.6)">
ᚻ</text>
<text x="-86.8" y="-40"  transform="rotate(294.7,-86.8,-40)">
ᛩ</text>
<text x="-85.1" y="-43.4"  transform="rotate(297,-85.1,-43.4)">
🝍</text>
<text x="-83.4" y="-46.7"  transform="rotate(299.2,-83.4,-46.7)">
🞠</text>
<text x="-81.5" y="-49.9"  transform="rotate(301.5,-81.5,-49.9)">
⚶</text>
<text x="-79.5" y="-53.1"  transform="rotate(303.7,-79.5,-53.1)">
ᛇ</text>
<text x="-77.3" y="-56.2"  transform="rotate(306,-77.3,-56.2)">
ᛞ</text>
<text x="-75" y="-59.2"  transform="rotate(308.2,-75,-59.2)">
ᚱ</text>
<text x="-72.7" y="-62.1"  transform="rotate(310.5,-72.7,-62.1)">
⧎</text>
<text x="-70.2" y="-64.9"  transform="rotate(312.7,-70.2,-64.9)">
🜫</text>
<text x="-67.6" y="-67.6"  transform="rotate(315,-67.6,-67.6)">
☾</text>
<text x="-64.9" y="-70.2"  transform="rotate(317.2,-64.9,-70.2)">
🜍</text>
<text x="-62.1" y="-72.7"  transform="rotate(319.5,-62.1,-72.7)">
ↆ</text>
<text x="-59.2" y="-75"  transform="rotate(321.7,-59.2,-75)">
⌇</text>
<text x="-56.2" y="-77.3"  transform="rotate(324,-56.2,-77.3)">
♆</text>
<text x="-53.1" y="-79.5"  transform="rotate(326.2,-53.1,-79.5)">
🜼</text>
<text x="-49.9" y="-81.5"  transform="rotate(328.5,-49.9,-81.5)">
ᛔ</text>
<text x="-46.7" y="-83.4"  transform="rotate(330.7,-46.7,-83.4)">
ᛟ</text>
<text x="-43.4" y="-85.1"  transform="rotate(333,-43.4,-85.1)">
🝮</text>
<text x="-40" y="-86.8"  transform="rotate(335.2,-40,-86.8)">
🝀</text>
<text x="-36.6" y="-88.3"  transform="rotate(337.5,-36.6,-88.3)">
🜃</text>
<text x="-33.1" y="-89.7"  transform="rotate(339.7,-33.1,-89.7)">
⅊</text>
<text x="-29.5" y="-90.9"  transform="rotate(342,-29.5,-90.9)">
🜭</text>
<text x="-25.9" y="-92"  transform="rotate(344.2,-25.9,-92)">
ᛜ</text>
<text x="-22.3" y="-92.9"  transform="rotate(346.5,-22.3,-92.9)">
ᛯ</text>
<text x="-18.6" y="-93.7"  transform="rotate(348.7,-18.6,-93.7)">
ᚵ</text>
<text x="-14.9" y="-94.4"  transform="rotate(351,-14.9,-94.4)">
🜹</text>
<text x="-11.2" y="-94.9"  transform="rotate(353.2,-11.2,-94.9)">
ᛃ</text>
<text x="-7.5" y="-95.3"  transform="rotate(355.5,-7.5,-95.3)">
🝢</text>
<text x="-3.8" y="-95.5"  transform="rotate(357.7,-3.8,-95.5)">
⁂</text>
<text x="0" y="-95.6"  transform="rotate(360,0,-95.6)">
🜁</text>
<text x="3.8" y="-95.5"  transform="rotate(362.2,3.8,-95.5)">
ᚧ</text>
<text x="7.5" y="-95.3"  transform="rotate(364.5,7.5,-95.3)">
🝊</text>
<text x="11.2" y="-94.9"  transform="rotate(366.7,11.2,-94.9)">
ᛊ</text>
<text x="14.9" y="-94.4"  transform="rotate(369,14.9,-94.4)">
🝂</text>
<text x="18.6" y="-93.7"  transform="rotate(371.2,18.6,-93.7)">
🝁</text>
<text x="22.3" y="-92.9"  transform="rotate(373.5,22.3,-92.9)">
🝰</text>
<text x="25.9" y="-92"  transform="rotate(375.7,25.9,-92)">
🜕</text>
<text x="29.5" y="-90.9"  transform="rotate(378,29.5,-90.9)">
🝗</text>
<text x="33.1" y="-89.7"  transform="rotate(380.2,33.1,-89.7)">
🜝</text>
<text x="36.6" y="-88.3"  transform="rotate(382.5,36.6,-88.3)">
⌬</text>
<text x="40" y="-86.8"  transform="rotate(384.7,40,-86.8)">
ᛠ</text>
<text x="43.4" y="-85.1"  transform="rotate(387,43.4,-85.1)">
₾</text>
<text x="46.7" y="-83.4"  transform="rotate(389.2,46.7,-83.4)">
↯</text>
<text x="49.9" y="-81.5"  transform="rotate(391.5,49.9,-81.5)">
🝋</text>
<text x="53.1" y="-79.5"  transform="rotate(393.7,53.1,-79.5)">
ᛋ</text>
<text x="56.2" y="-77.3"  transform="rotate(396,56.2,-77.3)">
🜏</text>
<text x="59.2" y="-75"  transform="rotate(398.2,59.2,-75)">
♅</text>
<text x="62.1" y="-72.7"  transform="rotate(400.5,62.1,-72.7)">
🜄</text>
<text x="64.9" y="-70.2"  transform="rotate(402.7,64.9,-70.2)">
⌭</text>
<text x="67.6" y="-67.6"  transform="rotate(405,67.6,-67.6)">
🜋</text>
<text x="70.2" y="-64.9"  transform="rotate(407.2,70.2,-64.9)">
Σ</text>
<text x="72.7" y="-62.1"  transform="rotate(409.5,72.7,-62.1)">
ᚬ</text>
<text x="75" y="-59.2"  transform="rotate(411.7,75,-59.2)">
↟</text>
<text x="77.3" y="-56.2"  transform="rotate(414,77.3,-56.2)">
ᚥ</text>
<text x="79.5" y="-53.1"  transform="rotate(416.2,79.5,-53.1)">
🜌</text>
<text x="81.5" y="-49.9"  transform="rotate(418.5,81.5,-49.9)">
🜣</text>
<text x="83.4" y="-46.7"  transform="rotate(420.7,83.4,-46.7)">
ᛢ</text>
<text x="85.1" y="-43.4"  transform="rotate(423,85.1,-43.4)">
🝪</text>
<text x="86.8" y="-40"  transform="rotate(425.2,86.8,-40)">
🝔</text>
<text x="88.3" y="-36.6"  transform="rotate(427.5,88.3,-36.6)">
⟐</text>
<text x="89.7" y="-33.1"  transform="rotate(429.7,89.7,-33.1)">
🝣</text>
<text x="90.9" y="-29.5"  transform="rotate(432,90.9,-29.5)">
🜂</text>
<text x="92" y="-25.9"  transform="rotate(434.2,92,-25.9)">
🝘</text>
<text x="92.9" y="-22.3"  transform="rotate(436.5,92.9,-22.3)">
🜘</text>
<text x="93.7" y="-18.6"  transform="rotate(438.7,93.7,-18.6)">
₸</text>
<text x="94.4" y="-14.9"  transform="rotate(441,94.4,-14.9)">
♮</text>
<text x="94.9" y="-11.2"  transform="rotate(443.2,94.9,-11.2)">
ᚡ</text>
<text x="95.3" y="-7.5"  transform="rotate(445.5,95.3,-7.5)">
🝩</text>
<text x="95.5" y="-3.8"  transform="rotate(447.7,95.5,-3.8)">
🜖</text>
</g>
<circle r="94.71000000000001"/>
</g>
<g>
<animateTransform attributeType="xml" attributeName="transform" type="rotate" from="0" to="360" dur="20s" additive="sum" repeatCount="indefinite" />
<rect x="-66.89937256805928" y="-66.89937256805928" width="133.79874513611855" height="133.79874513611855" />
<rect x="-66.89937256805928" y="-66.89937256805928" width="133.79874513611855" height="133.79874513611855" transform="rotate(30)" />
<rect x="-66.89937256805928" y="-66.89937256805928" width="133.79874513611855" height="133.79874513611855" transform="rotate(60)" />
<g style="font: 15.1px monospace" text-anchor="middle" alignment-baseline="middle" stroke="none" fill="rgba(185, 98, 232, 100%)">
<text x="53.2" y="53.2"  transform="rotate(135,53.2,53.2)">
ᛮ</text>
<text x="19.5" y="72.7"  transform="rotate(165,19.5,72.7)">
ᛟ</text>
<text x="-19.5" y="72.7"  transform="rotate(195,-19.5,72.7)">
🜶</text>
<text x="-53.2" y="53.2"  transform="rotate(225,-53.2,53.2)">
⟐</text>
<text x="-72.7" y="19.5"  transform="rotate(255,-72.7,19.5)">
🜌</text>
<text x="-72.7" y="-19.5"  transform="rotate(285,-72.7,-19.5)">
🝘</text>
<text x="-53.2" y="-53.2"  transform="rotate(315,-53.2,-53.2)">
♆</text>
<text x="-19.5" y="-72.7"  transform="rotate(345,-19.5,-72.7)">
ᚥ</text>
<text x="19.5" y="-72.7"  transform="rotate(375,19.5,-72.7)">
ᛒ</text>
<text x="53.2" y="-53.2"  transform="rotate(405,53.2,-53.2)">
🝢</text>
<text x="72.7" y="-19.5"  transform="rotate(435,72.7,-19.5)">
⅊</text>
<text x="72.7" y="19.5"  transform="rotate(465,72.7,19.5)">
ᛇ</text>
</g>
</g>
<circle r="66.69937256805929"/>
<g>
<animateTransform attributeType="xml" attributeName="transform" type="rotate" from="0" to="360" dur="5s" additive="sum" repeatCount="indefinite" />
<polygon points="66.6,0 11.6,65.6 -62.6,22.8 -33.3,-57.7 51,-42.8 51,42.8 -33.3,57.7 -62.6,-22.8 11.6,-65.6" />
</g>
<g>
<animateTransform attributeType="xml" attributeName="transform" type="rotate" from="360" to="0" dur="40s" additive="sum" repeatCount="indefinite" />
<circle r="50.935771768437085"/>
<polygon points="50.8,0 40.1,31.2 12.5,49.3 -20.4,46.6 -44.7,24.2 -50.1,-8.4 -34.4,-37.4 -4.2,-50.7 27.8,-42.6 48.1,-16.5 48.1,16.5 27.8,42.6 -4.2,50.7 -34.4,37.4 -50.1,8.4 -44.7,-24.2 -20.4,-46.6 12.5,-49.3 40.1,-31.2" />
<circle r="47.95270543892404"/>
<polygon points="47.9,0 41.8,23.3 25.1,40.7 2,47.8 -21.5,42.7 -39.6,26.8 -47.7,4.1 -43.6,-19.7 -28.5,-38.5 -6.1,-47.5 17.8,-44.4 37.2,-30.1 47.2,-8.1 45.1,15.9 31.6,35.9 10.1,46.8 -14,45.8 -34.5,33.1 -46.3,12.1 -46.3,-12.1 -34.5,-33.1 -14,-45.8 10.1,-46.8 31.6,-35.9 45.1,-15.9 47.2,8.1 37.2,30.1 17.8,44.4 -6.1,47.5 -28.5,38.5 -43.6,19.7 -47.7,-4.1 -39.6,-26.8 -21.5,-42.7 2,-47.8 25.1,-40.7 41.8,-23.3" />
</g>
<circle r="46.238375025458105"/>
<g>
<animateTransform attributeType="xml" attributeName="transform" type="rotate" from="0" to="360" dur="20s" additive="sum" repeatCount="indefinite" />
<polygon points="43.9,14.3 -27.1,-37.3 0,46.1 27.1,-37.3 -43.9,14.3" />
</g>
<circle r="14.146490795982007"/>
<g>
<animateTransform attributeType="xml" attributeName="transform" type="rotate" from="0" to="360" dur="5s" additive="sum" repeatCount="indefinite" />
<line x1="0" y1="0" x2="0" y2="14" />
<line x1="0" y1="0" x2="-12.2" y2="-7" />
<line x1="0" y1="0" x2="12.2" y2="-7" />
</g>
</g>
</svg>

